
<svg width="178" height="38" viewBox="0 0 178 38" fill="none" xmlns="http://www.w3.org/2000/svg"><path d="M49.296 22.696c.076-.194.136-.332.18-.476.902-2.675 1.803-5.351 2.702-8.028.342-1.018.68-2.04 1.033-3.048.093-.285.219-.56.375-.816a2.279 2.279 0 0 1 1.897-1.09c.179 0 .373-.01.56 0a2.315 2.315 0 0 1 1.988 1.157c.143.247.258.51.344.783 1.26 3.688 2.515 7.378 3.766 11.071l.127.359c.149-.013.14-.133.169-.217.422-1.25.84-2.5 1.255-3.75l2.51-7.5c.077-.247.175-.487.29-.718a2.299 2.299 0 0 1 2.925-1.043 2.025 2.025 0 0 1 1.284 2.311c-.047.267-.116.53-.208.785a9946.004 9946.004 0 0 1-5.428 14.634 4.829 4.829 0 0 1-.403.854 2.488 2.488 0 0 1-2.254 1.255c-.2.004-.4-.008-.6-.036a2.414 2.414 0 0 1-1.814-1.309 5.246 5.246 0 0 1-.312-.753 4306.898 4306.898 0 0 1-3.724-10.81.979.979 0 0 0-.212-.451c-.05.127-.1.239-.14.359-1.256 3.629-2.511 7.258-3.765 10.888-.074.232-.163.46-.267.68-.48.939-1.245 1.434-2.308 1.446a3.648 3.648 0 0 1-.642-.037 2.395 2.395 0 0 1-1.7-1.132 4.26 4.26 0 0 1-.377-.77c-1.826-4.93-3.647-9.855-5.462-14.775a7.031 7.031 0 0 1-.21-.744c-.272-1.14.449-2.282 1.743-2.51a2.51 2.51 0 0 1 1.026.02c.551.125 1.032.459 1.343.93.181.278.323.58.42.897a2809.73 2809.73 0 0 0 3.755 11.255c.03.092.073.181.134.329zM142.925 12.446l.394-.479a8.072 8.072 0 0 1 1.951-1.738 6.998 6.998 0 0 1 3.251-1.036 8.97 8.97 0 0 1 2.981.253c2.331.622 3.832 2.093 4.565 4.375a8.61 8.61 0 0 1 .398 2.618c.011 3.486 0 6.974 0 10.46a2.185 2.185 0 0 1-1.721 2.229 2.435 2.435 0 0 1-1.973-.341 2.063 2.063 0 0 1-.954-1.652c-.011-.179 0-.344 0-.516v-8.478a6.965 6.965 0 0 0-.226-1.96 5.798 5.798 0 0 0-.245-.689 3.571 3.571 0 0 0-2.382-2.076 5.277 5.277 0 0 0-3.048.021c-1.488.467-2.406 1.498-2.828 2.986a5.654 5.654 0 0 0-.199 1.575v8.736c.002.172-.007.345-.025.516a2.204 2.204 0 0 1-1.899 1.92 2.374 2.374 0 0 1-1.589-.25 2.118 2.118 0 0 1-1.156-1.794V2.117a2.178 2.178 0 0 1 1.814-2.064 2.365 2.365 0 0 1 1.435.141 2.189 2.189 0 0 1 1.402 1.994v9.725c-.016.18.002.36.054.533zM77.381 20.66c.309 2.402 1.973 4.25 4.266 4.74 2.177.465 4.184.035 6.007-1.244.164-.115.32-.244.486-.359a1.859 1.859 0 0 1 1.962-.107 1.76 1.76 0 0 1 .802 2.318 2.225 2.225 0 0 1-.64.797 10.103 10.103 0 0 1-4.157 2.074c-2.172.537-4.45.462-6.581-.215-2.492-.807-4.413-2.331-5.666-4.662a9.75 9.75 0 0 1-1.094-3.597 10.656 10.656 0 0 1 .633-5.2c1.273-3.176 3.561-5.226 6.902-6.022a10.148 10.148 0 0 1 5.847.314c2.66.949 4.445 2.81 5.48 5.415.403 1.03.63 2.122.67 3.228.014.257-.001.515-.044.77a2.058 2.058 0 0 1-1.691 1.672c-.255.041-.513.06-.771.058H77.919c-.17.007-.338.016-.538.02zm10.361-3.024c-.025-.18-.04-.314-.064-.453a6.181 6.181 0 0 0-1.096-2.678 4.584 4.584 0 0 0-2.453-1.72 5.381 5.381 0 0 0-1.614-.206 4.885 4.885 0 0 0-3.986 2.023 6.51 6.51 0 0 0-1.173 2.831c-.005.07-.005.14 0 .209.043.02.088.033.135.04h10.095a.715.715 0 0 0 .156-.046zM107.982 26.52c-.081.076-.162.152-.24.23a8.087 8.087 0 0 1-4.51 2.332 9.827 9.827 0 0 1-4.644-.29 6.863 6.863 0 0 1-2.104-1.055 5.347 5.347 0 0 1-2.234-4.221 6.741 6.741 0 0 1 .238-2.215 5.25 5.25 0 0 1 1.946-2.758 7.848 7.848 0 0 1 2.8-1.273 14.463 14.463 0 0 1 3.799-.38c1.593.016 3.177.25 4.707.696.111.027.223.048.337.063.041-.19.051-.384.03-.576a4.824 4.824 0 0 0-.251-1.478 3.438 3.438 0 0 0-1.613-1.93 5.204 5.204 0 0 0-1.96-.609 12.4 12.4 0 0 0-5.38.581c-.307.12-.63.193-.96.219a2.001 2.001 0 0 1-1.434-.479 1.771 1.771 0 0 1-.335-2.33 1.998 1.998 0 0 1 1.027-.812 18.46 18.46 0 0 1 2.814-.788 19.03 19.03 0 0 1 4.022-.332 12.44 12.44 0 0 1 3.723.59 6.976 6.976 0 0 1 3.112 2.053 6.828 6.828 0 0 1 1.458 2.939 9.68 9.68 0 0 1 .275 2.082V26.85c.035.896-.58 1.877-1.794 2.109a2.54 2.54 0 0 1-1.716-.24c-.672-.36-1.047-.919-1.049-1.699v-.468l-.064-.034zm.154-6.042c-.158-.056-.342-.126-.538-.18a13.503 13.503 0 0 0-4.244-.562c-.459.013-.915.055-1.368.125a4.717 4.717 0 0 0-1.661.56c-1.076.61-1.584 1.533-1.524 2.772a2.523 2.523 0 0 0 .999 1.92c.417.331.904.564 1.423.682a6.877 6.877 0 0 0 4.69-.519c.451-.22.861-.519 1.212-.88a3.552 3.552 0 0 0 .988-1.827 8.019 8.019 0 0 0 .059-2.012c-.011-.013-.011-.029-.045-.079h.009zM168.393 23.282c.061-.135.122-.26.18-.391 1.671-3.963 3.321-7.933 4.861-11.95.126-.365.3-.712.518-1.03.283-.423.71-.727 1.202-.856a2.296 2.296 0 0 1 1.972.344 1.975 1.975 0 0 1 .872 1.73 3.51 3.51 0 0 1-.318 1.33c-1.11 2.531-2.202 5.076-3.321 7.606-2.281 5.166-4.422 10.4-6.611 15.6-.061.146-.12.293-.194.43a2.09 2.09 0 0 1-2.178 1.064 2.053 2.053 0 0 1-1.727-1.531 1.95 1.95 0 0 1 .12-1.255l1.076-2.579c.403-.967.796-1.937 1.219-2.894a1.04 1.04 0 0 0-.029-.938 6130.634 6130.634 0 0 1-7.201-15.385 6.16 6.16 0 0 1-.335-.838c-.386-1.312.461-2.537 1.814-2.729.214-.025.43-.03.644-.014a2.023 2.023 0 0 1 1.544.82c.206.275.374.576.5.896a3761 3761 0 0 0 1.541 3.645l3.62 8.554c.052.123.074.278.231.37zM129.646 13.47c-.013.148-.027.245-.027.342v8.786c.004.216.021.43.052.644a1.95 1.95 0 0 0 1.637 1.757c.45.096.913.114 1.37.054.179-.027.369-.05.554-.063a1.91 1.91 0 0 1 1.646.68c.257.285.41.649.435 1.032.026.383-.078.763-.295 1.08-.261.4-.658.694-1.117.827a9.712 9.712 0 0 1-2.019.41 9.539 9.539 0 0 1-3.244-.218 6.837 6.837 0 0 1-.538-.167 4.282 4.282 0 0 1-2.704-2.8 7.298 7.298 0 0 1-.359-1.941c-.012-.23-.011-.46-.011-.689V2.484c-.007-.23.008-.46.047-.685a2.138 2.138 0 0 1 1.311-1.595 2.33 2.33 0 0 1 2.679.565c.336.36.531.83.549 1.324V8.913c0 .156.008.31.016.493.113.02.228.033.344.04h2.236c.229-.006.458.015.683.06.825.19 1.385.685 1.589 1.516a1.932 1.932 0 0 1-.82 2.072 2.172 2.172 0 0 1-1.255.377h-2.281l-.478-.002zM121.146 15.643v10.974c0 .18 0 .373-.013.558a2.195 2.195 0 0 1-1.917 2.02c-.542.1-1.102.01-1.585-.258a2.174 2.174 0 0 1-1.153-1.847V2.563c-.004-.215.009-.43.038-.642a2.202 2.202 0 0 1 1.8-1.845 2.422 2.422 0 0 1 1.856.367 2.11 2.11 0 0 1 .963 1.603c.016.18.018.373.018.56l-.007 13.037z" fill="#6725F4"/><rect x="26.842" y="13.969" width="4.662" height="15.242" rx="2.331" fill="#6725F4"/><rect x="26.842" y=".162" width="4.662" height="11.655" rx="2.331" fill="#6725F4"/><rect x="17.876" y="7.872" width="4.662" height="8.607" rx="2.331" fill="#6725F4"/><rect x="17.876" y="18.631" width="4.662" height="10.58" rx="2.331" fill="#6725F4"/><rect x="8.966" y="15.763" width="4.662" height="5.379" rx="2.331" fill="#6725F4"/><rect x="8.91" y="23.294" width="4.662" height="5.917" rx="2.331" fill="#6725F4"/><rect y="23.832" width="4.662" height="5.379" rx="2.331" fill="#6725F4"/></svg>